<svg xmlns="http://www.w3.org/2000/svg" width="245" height="21" fill="none"><path fill="#fff" d="M.69 20.5V.62h4.592v15.848h9.632V20.5zm23.829.168q-2.213 0-4.032-.868a10 10 0 0 1-3.108-2.268 10.8 10.8 0 0 1-2.016-3.248 10.4 10.4 0 0 1-.7-3.752q0-1.96.728-3.78a10.2 10.2 0 0 1 2.072-3.192 10 10 0 0 1 3.164-2.212q1.82-.84 3.976-.84 2.212 0 4.032.868a9.8 9.8 0 0 1 3.108 2.296A10.4 10.4 0 0 1 33.73 6.92q.7 1.82.7 3.696a9.8 9.8 0 0 1-.756 3.78 10.2 10.2 0 0 1-2.044 3.22 10.2 10.2 0 0 1-3.136 2.212q-1.82.84-3.976.84m-5.18-10.08q0 1.148.336 2.24.335 1.065.98 1.904a5 5 0 0 0 1.652 1.344q.98.504 2.24.504 1.315 0 2.296-.532a5.05 5.05 0 0 0 1.624-1.372q.645-.869.952-1.932a7.5 7.5 0 0 0 .336-2.212q0-1.148-.336-2.212a5.5 5.5 0 0 0-1.008-1.904A4.74 4.74 0 0 0 26.759 5.1q-.952-.504-2.212-.504-1.317 0-2.296.532a5.1 5.1 0 0 0-1.624 1.344 6.1 6.1 0 0 0-.98 1.932 7.8 7.8 0 0 0-.308 2.184M37.084 20.5V.62h8.96q1.4 0 2.576.588a6.8 6.8 0 0 1 2.072 1.54 7 7 0 0 1 1.344 2.156q.504 1.205.504 2.436a7 7 0 0 1-.224 1.792 7 7 0 0 1-.644 1.596q-.42.756-1.036 1.372-.588.588-1.344 1.008L53.66 20.5h-5.18l-3.808-6.412h-2.996V20.5zm4.592-10.416h4.2q.813 0 1.4-.756.588-.784.588-1.988 0-1.232-.672-1.96t-1.456-.728h-4.06zm28.138 6.384V20.5H55.842V.62h13.72v4.032h-9.128v3.864h7.84v3.724h-7.84v4.228zm18.47 4.032V8.6l-4.312 8.652h-2.464L77.196 8.6v11.9h-4.592V.62h4.984l5.152 10.388L87.92.62h4.956V20.5zm8.41 0V.62h4.592V20.5zm8.394 0V.62h8.484q1.428 0 2.604.588a6.5 6.5 0 0 1 2.044 1.54 7 7 0 0 1 1.344 2.156q.504 1.205.504 2.436a6.8 6.8 0 0 1-.476 2.52 6.8 6.8 0 0 1-1.288 2.156 5.9 5.9 0 0 1-1.988 1.512q-1.176.56-2.604.56h-4.032V20.5zm4.592-10.416h3.752q.812 0 1.4-.7t.588-2.044q0-.7-.196-1.204a2.3 2.3 0 0 0-.476-.84 1.74 1.74 0 0 0-.7-.476 2 2 0 0 0-.784-.168h-3.584zm24.781-3.64q-.084-.112-.588-.42t-1.26-.644a12 12 0 0 0-1.652-.588 6.6 6.6 0 0 0-1.792-.252q-2.464 0-2.464 1.652 0 .504.252.84.28.337.784.616.533.252 1.316.476.785.224 1.82.504 1.428.391 2.576.868 1.149.448 1.932 1.148.813.672 1.232 1.652.448.98.448 2.352 0 1.68-.644 2.856a5.3 5.3 0 0 1-1.652 1.876 7.4 7.4 0 0 1-2.38 1.036q-1.344.308-2.772.308a15.5 15.5 0 0 1-2.24-.168 18 18 0 0 1-2.24-.476 21 21 0 0 1-2.128-.784 12 12 0 0 1-1.876-1.036l2.016-4.004q.113.14.728.532.616.392 1.512.784.924.392 2.044.7a8.5 8.5 0 0 0 2.268.308q2.436 0 2.436-1.484 0-.56-.364-.924-.363-.364-1.008-.644a9.6 9.6 0 0 0-1.54-.56q-.867-.252-1.904-.56a18 18 0 0 1-2.38-.896q-1.008-.504-1.68-1.148a4.4 4.4 0 0 1-.98-1.484q-.308-.84-.308-1.96 0-1.568.588-2.772a5.84 5.84 0 0 1 1.596-2.016 6.8 6.8 0 0 1 2.324-1.26 9.4 9.4 0 0 1 2.828-.42q1.036 0 2.044.196t1.932.504 1.708.7q.813.392 1.484.784zM148.3 16.58q1.176 0 1.988-.476.812-.504 1.316-1.316a5.4 5.4 0 0 0 .7-1.848q.224-1.064.224-2.156V.62h4.592v10.164q0 2.072-.532 3.864-.504 1.792-1.596 3.136-1.064 1.344-2.744 2.128-1.651.756-3.948.756-2.38 0-4.06-.812t-2.744-2.156q-1.036-1.373-1.54-3.164a14.6 14.6 0 0 1-.476-3.752V.62h4.592v10.164q0 1.148.224 2.184t.728 1.848 1.288 1.288q.812.476 1.988.476m28.058 3.92V8.6l-4.312 8.652h-2.464L165.27 8.6v11.9h-4.592V.62h4.984l5.152 10.388L175.994.62h4.956V20.5zm8.018 0v-4.564h3.668V20.5z"/><path fill="#42A9ED" d="M196.059 9.132V20.5h-4.592V.62h3.584l9.268 11.676V.62h4.592V20.5h-3.696zm30.626 7.336V20.5h-13.972V.62h13.72v4.032h-9.128v3.864h7.84v3.724h-7.84v4.228zm17.938-11.816h-6.048V20.5h-4.592V4.652h-6.076V.62h16.716z"/></svg>