<?xml version="1.0" standalone="no"?>
<!DOCTYPE svg PUBLIC "-//W3C//DTD SVG 20010904//EN"
 "http://www.w3.org/TR/2001/REC-SVG-20010904/DTD/svg10.dtd">
<svg version="1.0" xmlns="http://www.w3.org/2000/svg"
 width="32.000000pt" height="29.000000pt" viewBox="0 0 32.000000 29.000000"
 preserveAspectRatio="xMidYMid meet">

<g transform="translate(0.000000,29.000000) scale(0.100000,-0.100000)"
fill="#000000" stroke="none">
<path d="M25 255 c-49 -48 -26 -105 74 -193 l61 -53 60 52 c101 87 124 146 75
194 -28 29 -63 32 -105 10 -27 -14 -33 -14 -60 0 -42 22 -77 19 -105 -10z
m101 -16 l34 -21 35 22 c41 25 78 21 96 -11 17 -33 4 -60 -66 -129 l-66 -65
-69 71 c-75 76 -84 100 -50 134 25 25 44 25 86 -1z"/>
</g>
</svg>
