<svg version="1.0" xmlns="http://www.w3.org/2000/svg">

<symbol id="team-icon1" viewBox="0 0 48.000000 48.000000">
  <g transform="translate(0.000000,48.000000) scale(0.100000,-0.100000)"
  stroke="none">
  <path d="M150 325 l-85 -85 88 -88 87 -87 87 87 88 88 -85 85 c-46 47 -87 85
  -90 85 -3 0 -44 -38 -90 -85z m130 -35 c0 -6 -7 -13 -16 -17 -13 -5 -13 -7 -2
  -14 10 -7 11 -12 1 -29 -7 -11 -13 -29 -13 -40 0 -11 -7 -20 -15 -20 -8 0 -15
  9 -15 20 0 11 -6 29 -12 40 -9 15 -10 23 -2 28 6 4 13 15 17 25 7 18 57 25 57
  7z"/>
  </g>
</symbol>
<symbol id="about-icon1" viewBox="0 0 19.000000 19.000000">
  <g transform="translate(0.000000,19.000000) scale(0.100000,-0.100000)"
  stroke="none">
  <path d="M124 171 c-18 -11 -35 -24 -38 -30 -4 -6 -17 -11 -28 -11 -22 0 -47
  -26 -48 -49 0 -8 7 -11 19 -8 25 6 54 -24 45 -47 -7 -18 8 -21 37 -6 10 6 19
  20 19 32 0 12 11 34 25 48 13 14 28 40 31 58 5 27 4 32 -12 32 -11 0 -33 -9
  -50 -19z m36 -21 c0 -5 -2 -10 -4 -10 -3 0 -8 5 -11 10 -3 6 -1 10 4 10 6 0
  11 -4 11 -10z"/>
  </g>
</symbol>

<symbol id="about1" viewBox="0 0 35.000000 26.000000">
  <g transform="translate(0.000000,29.000000) scale(0.100000,-0.100000)"
 stroke="none">
<path d="M25 255 c-49 -48 -26 -105 74 -193 l61 -53 60 52 c101 87 124 146 75
194 -28 29 -63 32 -105 10 -27 -14 -33 -14 -60 0 -42 22 -77 19 -105 -10z
m101 -16 l34 -21 35 22 c41 25 78 21 96 -11 17 -33 4 -60 -66 -129 l-66 -65
-69 71 c-75 76 -84 100 -50 134 25 25 44 25 86 -1z"/>
</g>
</symbol>

<symbol id="about4" viewBox="0 0 35.000000 26.000000">
  <g transform="translate(0.000000,29.000000) scale(0.100000,-0.100000)"
 stroke="none">
<path d="M122 245 c-18 -38 -27 -45 -59 -50 -69 -12 -69 -13 -30 -53 36 -37
37 -39 28 -85 -10 -54 -6 -55 49 -27 l40 20 40 -20 c21 -11 42 -20 46 -20 3 0
3 21 -1 46 -6 44 -5 49 30 84 20 21 33 40 28 43 -4 2 -29 7 -54 11 -42 6 -48
11 -64 47 -10 22 -21 42 -25 44 -4 2 -16 -16 -28 -40z m48 -35 c9 -22 21 -31
47 -36 l34 -6 -23 -25 c-17 -18 -21 -33 -19 -63 l3 -40 -30 17 c-29 17 -32 17
-67 0 l-36 -17 7 36 c5 30 2 40 -21 64 l-27 28 40 7 c32 5 43 12 52 36 16 37
24 37 40 -1z"/>
</g>
</symbol>

<symbol id="about2" viewBox="0 0 35.000000 26.000000">
  <g transform="translate(0.000000,26.000000) scale(0.100000,-0.100000)"
 stroke="none">
<path d="M197 253 c-13 -25 -69 -245 -63 -250 3 -3 8 -4 11 -1 5 5 75 238 75
250 0 10 -18 10 -23 1z"/>
<path d="M40 175 l-44 -45 44 -45 c40 -41 70 -57 70 -38 0 4 -17 24 -37 45
l-37 38 37 38 c20 21 37 41 37 45 0 19 -30 3 -70 -38z"/>
<path d="M240 213 c0 -4 17 -24 37 -45 l37 -38 -37 -38 c-20 -21 -37 -41 -37
-45 0 -18 28 -3 67 35 l43 42 -47 48 c-45 45 -63 57 -63 41z"/>
</g>
</symbol>

</svg>
