<svg version="1.0" xmlns="http://www.w3.org/2000/svg">

<symbol id="team-icon1" viewBox="0 0 48.000000 48.000000">
  <g transform="translate(0.000000,48.000000) scale(0.100000,-0.100000)"
  stroke="none">
  <path d="M150 325 l-85 -85 88 -88 87 -87 87 87 88 88 -85 85 c-46 47 -87 85
  -90 85 -3 0 -44 -38 -90 -85z m130 -35 c0 -6 -7 -13 -16 -17 -13 -5 -13 -7 -2
  -14 10 -7 11 -12 1 -29 -7 -11 -13 -29 -13 -40 0 -11 -7 -20 -15 -20 -8 0 -15
  9 -15 20 0 11 -6 29 -12 40 -9 15 -10 23 -2 28 6 4 13 15 17 25 7 18 57 25 57
  7z"/>
  </g>
</symbol>
<symbol id="about-icon1" viewBox="0 0 19.000000 19.000000">
  <g transform="translate(0.000000,19.000000) scale(0.100000,-0.100000)"
  stroke="none">
  <path d="M124 171 c-18 -11 -35 -24 -38 -30 -4 -6 -17 -11 -28 -11 -22 0 -47
  -26 -48 -49 0 -8 7 -11 19 -8 25 6 54 -24 45 -47 -7 -18 8 -21 37 -6 10 6 19
  20 19 32 0 12 11 34 25 48 13 14 28 40 31 58 5 27 4 32 -12 32 -11 0 -33 -9
  -50 -19z m36 -21 c0 -5 -2 -10 -4 -10 -3 0 -8 5 -11 10 -3 6 -1 10 4 10 6 0
  11 -4 11 -10z"/>
  </g>
</symbol>

</svg>
