<?xml version="1.0" standalone="no"?>
<!DOCTYPE svg PUBLIC "-//W3C//DTD SVG 20010904//EN"
 "http://www.w3.org/TR/2001/REC-SVG-20010904/DTD/svg10.dtd">
<svg version="1.0" xmlns="http://www.w3.org/2000/svg"
 width="76.000000pt" height="79.000000pt" viewBox="0 0 76.000000 79.000000"
 preserveAspectRatio="xMidYMid meet">

<g transform="translate(0.000000,79.000000) scale(0.100000,-0.100000)"
fill="#000000" stroke="none">
<path d="M360 470 c-10 -23 -19 -30 -41 -30 -38 0 -43 -13 -14 -40 19 -18 22
-29 18 -56 -6 -38 -3 -40 35 -20 23 12 31 12 52 0 37 -20 41 -18 34 24 -5 30
-2 41 15 56 29 26 26 36 -9 36 -23 0 -33 7 -45 30 -9 17 -19 30 -24 30 -5 0
-14 -13 -21 -30z m67 -45 c24 -6 25 -7 8 -25 -11 -12 -15 -28 -12 -40 4 -17 2
-20 -11 -15 -22 9 -33 9 -56 0 -17 -7 -18 -5 -13 15 4 15 1 31 -9 41 -14 16
-14 18 5 24 12 3 26 16 33 28 l11 22 10 -22 c5 -12 21 -24 34 -28z"/>
</g>
</svg>
