<?xml version="1.0" standalone="no"?>
<!DOCTYPE svg PUBLIC "-//W3C//DTD SVG 20010904//EN"
 "http://www.w3.org/TR/2001/REC-SVG-20010904/DTD/svg10.dtd">
<svg version="1.0" xmlns="http://www.w3.org/2000/svg"
 width="30.000000pt" height="29.000000pt" viewBox="0 0 30.000000 29.000000"
 preserveAspectRatio="xMidYMid meet">

<g transform="translate(0.000000,29.000000) scale(0.100000,-0.100000)"
fill="#000000" stroke="none">
<path d="M122 245 c-18 -38 -27 -45 -59 -50 -69 -12 -69 -13 -30 -53 36 -37
37 -39 28 -85 -10 -54 -6 -55 49 -27 l40 20 40 -20 c21 -11 42 -20 46 -20 3 0
3 21 -1 46 -6 44 -5 49 30 84 20 21 33 40 28 43 -4 2 -29 7 -54 11 -42 6 -48
11 -64 47 -10 22 -21 42 -25 44 -4 2 -16 -16 -28 -40z m48 -35 c9 -22 21 -31
47 -36 l34 -6 -23 -25 c-17 -18 -21 -33 -19 -63 l3 -40 -30 17 c-29 17 -32 17
-67 0 l-36 -17 7 36 c5 30 2 40 -21 64 l-27 28 40 7 c32 5 43 12 52 36 16 37
24 37 40 -1z"/>
</g>
</svg>
