<?xml version="1.0" standalone="no"?>
<!DOCTYPE svg PUBLIC "-//W3C//DTD SVG 20010904//EN"
 "http://www.w3.org/TR/2001/REC-SVG-20010904/DTD/svg10.dtd">
<svg version="1.0" xmlns="http://www.w3.org/2000/svg"
 width="35.000000pt" height="26.000000pt" viewBox="0 0 35.000000 26.000000"
 preserveAspectRatio="xMidYMid meet">

<g transform="translate(0.000000,26.000000) scale(0.100000,-0.100000)"
fill="#000000" stroke="none">
<path d="M197 253 c-13 -25 -69 -245 -63 -250 3 -3 8 -4 11 -1 5 5 75 238 75
250 0 10 -18 10 -23 1z"/>
<path d="M40 175 l-44 -45 44 -45 c40 -41 70 -57 70 -38 0 4 -17 24 -37 45
l-37 38 37 38 c20 21 37 41 37 45 0 19 -30 3 -70 -38z"/>
<path d="M240 213 c0 -4 17 -24 37 -45 l37 -38 -37 -38 c-20 -21 -37 -41 -37
-45 0 -18 28 -3 67 35 l43 42 -47 48 c-45 45 -63 57 -63 41z"/>
</g>
</svg>
