<?xml version="1.0" standalone="no"?>
<!DOCTYPE svg PUBLIC "-//W3C//DTD SVG 20010904//EN"
 "http://www.w3.org/TR/2001/REC-SVG-20010904/DTD/svg10.dtd">
<svg version="1.0" xmlns="http://www.w3.org/2000/svg"
 width="19.000000pt" height="19.000000pt" viewBox="0 0 19.000000 19.000000"
 preserveAspectRatio="xMidYMid meet">

<g transform="translate(0.000000,19.000000) scale(0.100000,-0.100000)"
fill="#000000" stroke="none">
<path d="M124 171 c-18 -11 -35 -24 -38 -30 -4 -6 -17 -11 -28 -11 -22 0 -47
-26 -48 -49 0 -8 7 -11 19 -8 25 6 54 -24 45 -47 -7 -18 8 -21 37 -6 10 6 19
20 19 32 0 12 11 34 25 48 13 14 28 40 31 58 5 27 4 32 -12 32 -11 0 -33 -9
-50 -19z m36 -21 c0 -5 -2 -10 -4 -10 -3 0 -8 5 -11 10 -3 6 -1 10 4 10 6 0
11 -4 11 -10z"/>
</g>
</svg>
