<?xml version="1.0" standalone="no"?>
<!DOCTYPE svg PUBLIC "-//W3C//DTD SVG 20010904//EN"
 "http://www.w3.org/TR/2001/REC-SVG-20010904/DTD/svg10.dtd">
<svg version="1.0" xmlns="http://www.w3.org/2000/svg"
 width="48.000000pt" height="48.000000pt" viewBox="0 0 48.000000 48.000000"
 preserveAspectRatio="xMidYMid meet">

<g transform="translate(0.000000,48.000000) scale(0.100000,-0.100000)"
fill="#000000" stroke="none">
<path d="M150 325 l-85 -85 88 -88 87 -87 87 87 88 88 -85 85 c-46 47 -87 85
-90 85 -3 0 -44 -38 -90 -85z m130 -35 c0 -6 -7 -13 -16 -17 -13 -5 -13 -7 -2
-14 10 -7 11 -12 1 -29 -7 -11 -13 -29 -13 -40 0 -11 -7 -20 -15 -20 -8 0 -15
9 -15 20 0 11 -6 29 -12 40 -9 15 -10 23 -2 28 6 4 13 15 17 25 7 18 57 25 57
7z"/>
</g>
</svg>
