<svg xmlns="http://www.w3.org/2000/svg" width="101" height="100" fill="none"><circle cx="50.5" cy="50" r="47.5" fill="#3E9CDC" stroke="#286690" stroke-width="5"/><path fill="#fff" d="M61.286 57.214a2.59 2.59 0 0 1-2.572 2.572 2.59 2.59 0 0 1-2.571-2.572 2.59 2.59 0 0 1 2.571-2.571 2.59 2.59 0 0 1 2.572 2.571M45.857 41.786a2.59 2.59 0 0 1-2.571 2.571 2.59 2.59 0 0 1-2.572-2.571 2.59 2.59 0 0 1 2.572-2.572 2.59 2.59 0 0 1 2.571 2.572M66.43 57.214a7.716 7.716 0 0 0-7.715-7.714A7.716 7.716 0 0 0 51 57.214a7.716 7.716 0 0 0 7.714 7.715 7.716 7.716 0 0 0 7.715-7.715M64.5 35.357c0-.703-.583-1.286-1.286-1.286H60c-.402 0-.783.201-1.025.523L37.761 62.879c-.16.221-.261.483-.261.764 0 .703.583 1.286 1.286 1.286H42c.402 0 .783-.201 1.025-.523L64.239 36.12c.16-.22.261-.482.261-.763M51 41.786a7.716 7.716 0 0 0-7.714-7.715 7.716 7.716 0 0 0-7.715 7.715 7.716 7.716 0 0 0 7.715 7.714A7.716 7.716 0 0 0 51 41.786"/></svg>