<svg xmlns="http://www.w3.org/2000/svg" width="101" height="100" fill="none"><circle cx="50.5" cy="50" r="47.5" fill="#3E9CDC" stroke="#286690" stroke-width="5"/><path fill="#fff" d="M47.493 51.122v-1.285c0-.362.282-.643.643-.643H62.28c.361 0 .643.281.643.643v1.285a.635.635 0 0 1-.643.643H48.136a.635.635 0 0 1-.643-.643m.643 3.215H62.28c.361 0 .643.281.643.643v1.285a.635.635 0 0 1-.643.643H48.136a.635.635 0 0 1-.643-.643V54.98c0-.362.282-.643.643-.643m0 5.143H62.28c.361 0 .643.28.643.642v1.286a.635.635 0 0 1-.643.643H48.136a.635.635 0 0 1-.643-.643v-1.286c0-.361.282-.642.643-.642"/><path fill="#fff" fill-rule="evenodd" d="M39.779 43.065a7.415 7.415 0 1 1 7.173-9.3h12.756c1.064 0 2.55.623 3.294 1.366L69.27 41.4c.743.743 1.366 2.23 1.366 3.295v23.143a1.93 1.93 0 0 1-1.928 1.928h-27a1.93 1.93 0 0 1-1.93-1.928zm2.571-.458a7.42 7.42 0 0 0 4.813-6.27h10.616v8.357a1.93 1.93 0 0 0 1.928 1.928h8.358v20.572H42.35zm18.824-5.668c-.14-.14-.482-.321-.824-.442v7.554h7.554c-.12-.342-.301-.683-.442-.824zm-20.395-.29h4v-2h-4v-4h-2v4h-4v2h4v4h2z" clip-rule="evenodd"/></svg>