<svg xmlns="http://www.w3.org/2000/svg" width="101" height="100" fill="none"><circle cx="50.5" cy="50" r="47.5" fill="#3E9CDC" stroke="#286690" stroke-width="5"/><path fill="#fff" d="M67.929 60.857a.66.66 0 0 1-.643.643H37.714a.66.66 0 0 1-.643-.643V45.43q.633.723 1.387 1.325c2.872 2.21 5.765 4.46 8.558 6.79 1.506 1.266 3.375 2.813 5.464 2.813h.04c2.09 0 3.958-1.547 5.464-2.812 2.793-2.33 5.686-4.58 8.558-6.79q.754-.603 1.387-1.326zm0-21.114c0 1.708-1.648 3.938-2.954 4.962-2.691 2.11-5.383 4.24-8.055 6.369-1.065.864-2.994 2.712-4.4 2.712h-.04c-1.406 0-3.335-1.849-4.4-2.712-2.672-2.13-5.363-4.26-8.055-6.369C38.217 43.28 37.07 41.29 37.07 39c0-.342.302-.643.643-.643h29.572c.763 0 .643.884.643 1.386M70.5 39a3.224 3.224 0 0 0-3.214-3.214H37.714A3.224 3.224 0 0 0 34.5 39v21.857a3.224 3.224 0 0 0 3.214 3.214h29.572a3.224 3.224 0 0 0 3.214-3.214z"/></svg>