<svg xmlns="http://www.w3.org/2000/svg" width="101" height="100" fill="none"><circle cx="50.5" cy="50" r="47.5" fill="#3E9CDC" stroke="#286690" stroke-width="5"/><path fill="#fff" d="M47.429 53.786v-1.929H50v-5.786h-.04c-.322.503-.623.724-1.105 1.146l-1.547-1.608 2.973-2.752h2.29v9h2.572v1.929zm10.285-5.143c0-3.656-2.21-8.357-6.428-8.357-4.219 0-6.429 4.7-6.429 8.357S47.067 57 51.286 57c4.218 0 6.428-4.7 6.428-8.357M68 53.786a5.153 5.153 0 0 0-5.143 5.143H39.714a5.153 5.153 0 0 0-5.143-5.143V43.5a5.153 5.153 0 0 0 5.143-5.143h23.143A5.153 5.153 0 0 0 68 43.5zm2.571-16.715c0-.703-.582-1.285-1.285-1.285h-36c-.703 0-1.286.582-1.286 1.285v23.143c0 .703.583 1.286 1.286 1.286h36c.703 0 1.285-.583 1.285-1.286z"/></svg>